<svg width="32" height="32" viewBox="0 0 32 32" fill="none" xmlns="http://www.w3.org/2000/svg">
<path d="M10.6646 3.19995C6.54833 3.19995 3.20001 6.55137 3.20001 10.6687V21.3354C3.20001 25.4516 6.55143 28.8 10.6688 28.8H21.3354C25.4517 28.8 28.8 25.4485 28.8 21.3312V10.6645C28.8 6.54827 25.4486 3.19995 21.3313 3.19995H10.6646ZM23.4667 7.46662C24.0555 7.46662 24.5333 7.94448 24.5333 8.53328C24.5333 9.12208 24.0555 9.59995 23.4667 9.59995C22.8779 9.59995 22.4 9.12208 22.4 8.53328C22.4 7.94448 22.8779 7.46662 23.4667 7.46662ZM16 9.59995C19.5296 9.59995 22.4 12.4704 22.4 16C22.4 19.5296 19.5296 22.4 16 22.4C12.4704 22.4 9.60001 19.5296 9.60001 16C9.60001 12.4704 12.4704 9.59995 16 9.59995ZM16 11.7333C14.8684 11.7333 13.7832 12.1828 12.983 12.983C12.1829 13.7831 11.7333 14.8684 11.7333 16C11.7333 17.1315 12.1829 18.2168 12.983 19.0169C13.7832 19.8171 14.8684 20.2666 16 20.2666C17.1316 20.2666 18.2168 19.8171 19.017 19.0169C19.8172 18.2168 20.2667 17.1315 20.2667 16C20.2667 14.8684 19.8172 13.7831 19.017 12.983C18.2168 12.1828 17.1316 11.7333 16 11.7333Z" fill="white" fill-opacity="0.8"/>
</svg>
