<svg width="19" height="20" viewBox="0 0 19 20" fill="none" xmlns="http://www.w3.org/2000/svg">
<path d="M9.50005 0.399902C4.41935 0.399902 0.300049 4.6983 0.300049 9.9999C0.300049 11.8009 0.784844 13.48 1.61177 14.9202L0.382406 19.5999L4.96294 18.3452C6.30255 19.14 7.84902 19.5999 9.50005 19.5999C14.5807 19.5999 18.7 15.3015 18.7 9.9999C18.7 4.6983 14.5807 0.399902 9.50005 0.399902ZM6.35103 5.52178C6.50053 5.52178 6.65413 5.52083 6.78677 5.52803C6.95084 5.53203 7.12941 5.54456 7.30037 5.93896C7.50354 6.40776 7.94592 7.58383 8.00265 7.70303C8.05939 7.82223 8.09959 7.96265 8.02062 8.11865C7.94549 8.27865 7.90641 8.37549 7.79601 8.51709C7.68178 8.65469 7.55661 8.82559 7.45311 8.92959C7.33888 9.04879 7.22092 9.17949 7.35278 9.41709C7.48465 9.65469 7.94261 10.4336 8.61958 11.0624C9.48975 11.8736 10.2239 12.1229 10.4524 12.2421C10.6809 12.3613 10.8132 12.3427 10.945 12.1827C11.0807 12.0267 11.5149 11.4914 11.6683 11.253C11.8178 11.0146 11.9704 11.0559 12.1774 11.1343C12.3875 11.2127 13.5077 11.7885 13.7362 11.9077C13.9646 12.0269 14.1144 12.0859 14.1719 12.1827C14.231 12.2827 14.231 12.7588 14.0417 13.314C13.8523 13.8684 12.9224 14.4045 12.5053 14.4421C12.0844 14.4829 11.6916 14.6395 9.76958 13.8499C7.45118 12.8971 5.98909 10.4193 5.87485 10.2593C5.76062 10.1033 4.94647 8.97103 4.94647 7.80303C4.94647 6.63103 5.53535 6.05705 5.74159 5.81865C5.95165 5.58025 6.19769 5.52178 6.35103 5.52178Z" fill="black"/>
</svg>
