<svg width="26" height="26" viewBox="0 0 26 26" fill="none" xmlns="http://www.w3.org/2000/svg">
<path d="M13 0.199951C5.93121 0.199951 0.200012 5.93115 0.200012 13C0.200012 15.4012 0.87451 17.64 2.02501 19.5604L0.314596 25.8L6.68751 24.127C8.55132 25.1867 10.7029 25.8 13 25.8C20.0688 25.8 25.8 20.0688 25.8 13C25.8 5.93115 20.0688 0.199951 13 0.199951ZM8.61876 7.02912C8.82676 7.02912 9.04048 7.02785 9.22501 7.03745C9.45328 7.04278 9.70173 7.0595 9.9396 7.58537C10.2223 8.21043 10.8377 9.77852 10.9167 9.93745C10.9956 10.0964 11.0515 10.2836 10.9417 10.4916C10.8371 10.705 10.7828 10.8341 10.6292 11.0229C10.4702 11.2063 10.2961 11.4342 10.1521 11.5729C9.99316 11.7318 9.82905 11.9061 10.0125 12.2229C10.196 12.5397 10.8331 13.5782 11.775 14.4166C12.9857 15.4982 14.0071 15.8306 14.325 15.9895C14.6429 16.1485 14.827 16.1237 15.0104 15.9104C15.1992 15.7024 15.8033 14.9887 16.0167 14.6708C16.2247 14.3529 16.437 14.4079 16.725 14.5125C17.0173 14.617 18.5759 15.3848 18.8938 15.5437C19.2116 15.7026 19.42 15.7813 19.5 15.9104C19.5821 16.0437 19.5822 16.6784 19.3188 17.4187C19.0553 18.1579 17.7615 18.8727 17.1813 18.9229C16.5957 18.9773 16.0491 19.1861 13.375 18.1333C10.1494 16.8629 8.1152 13.5591 7.95626 13.3458C7.79733 13.1378 6.6646 11.6281 6.6646 10.0708C6.6646 8.50812 7.48391 7.74282 7.77085 7.42495C8.06311 7.10708 8.40543 7.02912 8.61876 7.02912Z" fill="white" fill-opacity="0.8"/>
</svg>
